<svg xmlns="http://www.w3.org/2000/svg" viewBox="0 0 1000 1000">
  <defs>
    <style>
      .st0 {
        fill: #cc6e66;
      }

      .st1 {
        fill: url(#linear-gradient);
      }

      .st2 {
        fill: #03666c;
      }
    </style>
    <linearGradient id="linear-gradient" x1="264.25" y1="930.26" x2="815.71" y2="121.76" gradientUnits="userSpaceOnUse">
      <stop offset="0" stop-color="#fff"/>
      <stop offset=".22" stop-color="#f9f8f7"/>
      <stop offset=".56" stop-color="#e8e7e2"/>
      <stop offset=".96" stop-color="#cdccc0"/>
      <stop offset="1" stop-color="#cbc9bd"/>
    </linearGradient>
  </defs>
  <path class="st2" d="M695.86,151.11l-11.07,121.44c-2.09,22.88-18,42.09-40.05,48.47l-261.86,75.64c-10.75,3.07-20.4,8.47-28.43,15.51-1.46,1.3-2.84,2.64-4.21,4.02-12.84,13.19-20.67,31.03-21.11,50.32l-2.87,136.41c-.35,17.64-5.63,34.53-14.81,48.99-7.32,11.54-17.09,21.54-28.94,29.1l-99.78,64.07c-3.47-4.49-6.85-9.06-10.08-13.7-1.85-2.64-3.66-5.28-5.47-7.92-1.61-2.36-3.15-4.76-4.73-7.17-.39-.63-.79-1.22-1.14-1.81-1.38-2.13-2.68-4.25-3.98-6.42-1.02-1.62-1.97-3.23-2.91-4.88-2.32-3.9-4.57-7.88-6.77-11.85-.91-1.73-1.81-3.43-2.72-5.16-.47-.87-.91-1.73-1.38-2.6-28.19-54.85-44.14-117.03-44.14-182.99,0-221.22,179.37-400.59,400.59-400.59,68.95,0,133.77,17.41,190.39,48.08,1.85,1.02,3.66,2.01,5.47,3.03Z"/>
  <path class="st2" d="M900.59,500.59c0,203.46-151.72,371.53-348.18,397.16l.59-4.88,26.54-212.17c2.52-20.28.47-40.6-5.63-59.5-.59-1.97-1.26-3.94-2.01-5.87-7.32-19.73-19.14-37.8-34.85-52.65l-38.55-36.27c-7.05-6.61-10.43-15.08-10.67-23.51-.04-.43-.04-.87-.04-1.26,0-.94,0-1.85.12-2.76,1.18-13.78,10.67-26.62,26.11-30.28l345.85-81.04c6.69-1.54,13.27-3.58,19.61-6.1.95-.36,1.85-.71,2.76-1.07,11.93,37.92,18.35,78.28,18.35,120.18Z"/>
  <path class="st1" d="M882.24,380.41c-.91.36-1.81.71-2.76,1.07-6.34,2.52-12.92,4.57-19.61,6.1l-345.85,81.04c-15.44,3.66-24.93,16.5-26.11,30.28-.12.91-.12,1.81-.12,2.76,0,.39,0,.83.04,1.26.24,8.43,3.62,16.89,10.67,23.51l38.55,36.27c15.71,14.85,27.53,32.92,34.85,52.65.75,1.93,1.42,3.9,2.01,5.87,6.1,18.9,8.15,39.22,5.63,59.5l-26.54,212.17-.59,4.88c-17.48,2.36-35.56,2.24-53.67,2.24-128.49,0-242.92-60.6-316.01-154.91l99.78-64.07c11.85-7.56,21.62-17.56,28.94-29.1,9.18-14.45,14.45-31.34,14.81-48.99l2.87-136.41c.43-19.29,8.27-37.13,21.11-50.32,1.38-1.38,2.76-2.72,4.21-4.02,8.03-7.05,17.68-12.44,28.43-15.51l261.86-75.64c22.05-6.38,37.96-25.6,40.05-48.47l11.07-121.44c40.32,22.92,76.31,52.69,106.36,87.73-2.09-.47-4.17-.87-6.34-1.06-2.13-.27-4.29-.39-6.5-.39-31.58,0-57.14,25.6-57.14,57.18,0,24.65,15.59,45.64,37.49,53.67.59.24,1.22.43,1.85.63,5.59,1.85,11.58,2.84,17.8,2.84,29.26,0,53.44-22.05,56.7-50.48,14.18,24.77,27.49,51.43,36.15,79.19Z"/>
  <path class="st0" d="M846.52,294.57c0,1.73-.08,3.43-.24,5.08-.04.51-.12,1.06-.2,1.57-3.27,28.43-27.45,50.48-56.7,50.48-6.22,0-12.21-.98-17.8-2.84-.63-.2-1.26-.39-1.85-.63-21.89-8.03-37.49-29.02-37.49-53.67,0-31.58,25.56-57.18,57.14-57.18,2.21,0,4.37.12,6.5.39,2.17.2,4.25.59,6.34,1.06.39.08.79.16,1.18.27,24.77,6.26,43.12,28.71,43.12,55.44Z"/></svg>
